G04 #@! TF.FileFunction,Legend,Bot*
%FSLAX46Y46*%
G04 Gerber Fmt 4.6, Leading zero omitted, Abs format (unit mm)*
G04 Created by KiCad (PCBNEW 0.201504281001+5628~23~ubuntu14.10.1-product) date Wed 29 Apr 2015 14:12:36 EEST*
%MOMM*%
G01*
G04 APERTURE LIST*
%ADD10C,0.100000*%
%ADD11C,0.300000*%
%ADD12C,0.254000*%
%ADD13C,0.150000*%
%ADD14C,0.700000*%
%ADD15C,0.400000*%
%ADD16C,0.500000*%
%ADD17C,0.200000*%
%ADD18C,0.508000*%
%ADD19C,0.350000*%
G04 APERTURE END LIST*
D10*
D11*
X174605000Y-114395787D02*
X174533571Y-114324359D01*
X174319286Y-114181502D01*
X174176429Y-114110073D01*
X173962143Y-114038644D01*
X173605000Y-113967216D01*
X173319286Y-113967216D01*
X172962143Y-114038644D01*
X172747857Y-114110073D01*
X172605000Y-114181502D01*
X172390714Y-114324359D01*
X172319286Y-114395787D01*
X173962143Y-115610073D02*
X174033571Y-115467216D01*
X174033571Y-115181502D01*
X173962143Y-115038644D01*
X173890714Y-114967216D01*
X173747857Y-114895787D01*
X173319286Y-114895787D01*
X173176429Y-114967216D01*
X173105000Y-115038644D01*
X173033571Y-115181502D01*
X173033571Y-115467216D01*
X173105000Y-115610073D01*
X174605000Y-116110073D02*
X174533571Y-116181501D01*
X174319286Y-116324358D01*
X174176429Y-116395787D01*
X173962143Y-116467216D01*
X173605000Y-116538644D01*
X173319286Y-116538644D01*
X172962143Y-116467216D01*
X172747857Y-116395787D01*
X172605000Y-116324358D01*
X172390714Y-116181501D01*
X172319286Y-116110073D01*
X172676429Y-118324358D02*
X172605000Y-118395787D01*
X172533571Y-118538644D01*
X172533571Y-118895787D01*
X172605000Y-119038644D01*
X172676429Y-119110073D01*
X172819286Y-119181501D01*
X172962143Y-119181501D01*
X173176429Y-119110073D01*
X174033571Y-118252930D01*
X174033571Y-119181501D01*
X172533571Y-120110072D02*
X172533571Y-120252929D01*
X172605000Y-120395786D01*
X172676429Y-120467215D01*
X172819286Y-120538644D01*
X173105000Y-120610072D01*
X173462143Y-120610072D01*
X173747857Y-120538644D01*
X173890714Y-120467215D01*
X173962143Y-120395786D01*
X174033571Y-120252929D01*
X174033571Y-120110072D01*
X173962143Y-119967215D01*
X173890714Y-119895786D01*
X173747857Y-119824358D01*
X173462143Y-119752929D01*
X173105000Y-119752929D01*
X172819286Y-119824358D01*
X172676429Y-119895786D01*
X172605000Y-119967215D01*
X172533571Y-120110072D01*
X174033571Y-122038643D02*
X174033571Y-121181500D01*
X174033571Y-121610072D02*
X172533571Y-121610072D01*
X172747857Y-121467215D01*
X172890714Y-121324357D01*
X172962143Y-121181500D01*
X172533571Y-123395786D02*
X172533571Y-122681500D01*
X173247857Y-122610071D01*
X173176429Y-122681500D01*
X173105000Y-122824357D01*
X173105000Y-123181500D01*
X173176429Y-123324357D01*
X173247857Y-123395786D01*
X173390714Y-123467214D01*
X173747857Y-123467214D01*
X173890714Y-123395786D01*
X173962143Y-123324357D01*
X174033571Y-123181500D01*
X174033571Y-122824357D01*
X173962143Y-122681500D01*
X173890714Y-122610071D01*
X165032285Y-108882571D02*
X165532285Y-108168286D01*
X165889428Y-108882571D02*
X165889428Y-107382571D01*
X165318000Y-107382571D01*
X165175142Y-107454000D01*
X165103714Y-107525429D01*
X165032285Y-107668286D01*
X165032285Y-107882571D01*
X165103714Y-108025429D01*
X165175142Y-108096857D01*
X165318000Y-108168286D01*
X165889428Y-108168286D01*
X163818000Y-108811143D02*
X163960857Y-108882571D01*
X164246571Y-108882571D01*
X164389428Y-108811143D01*
X164460857Y-108668286D01*
X164460857Y-108096857D01*
X164389428Y-107954000D01*
X164246571Y-107882571D01*
X163960857Y-107882571D01*
X163818000Y-107954000D01*
X163746571Y-108096857D01*
X163746571Y-108239714D01*
X164460857Y-108382571D01*
X163246571Y-107882571D02*
X162889428Y-108882571D01*
X162532286Y-107882571D01*
X160889429Y-108454000D02*
X160175143Y-108454000D01*
X161032286Y-108882571D02*
X160532286Y-107382571D01*
X160032286Y-108882571D01*
X161776671Y-124281643D02*
X161776671Y-125138786D01*
X163276671Y-124710215D02*
X161776671Y-124710215D01*
X161776671Y-125495929D02*
X163276671Y-126495929D01*
X161776671Y-126495929D02*
X163276671Y-125495929D01*
X163276671Y-127067357D02*
X161776671Y-127067357D01*
X161776671Y-127424500D01*
X161848100Y-127638785D01*
X161990957Y-127781643D01*
X162133814Y-127853071D01*
X162419529Y-127924500D01*
X162633814Y-127924500D01*
X162919529Y-127853071D01*
X163062386Y-127781643D01*
X163205243Y-127638785D01*
X163276671Y-127424500D01*
X163276671Y-127067357D01*
X165791271Y-125047501D02*
X165076986Y-124547501D01*
X165791271Y-124190358D02*
X164291271Y-124190358D01*
X164291271Y-124761786D01*
X164362700Y-124904644D01*
X164434129Y-124976072D01*
X164576986Y-125047501D01*
X164791271Y-125047501D01*
X164934129Y-124976072D01*
X165005557Y-124904644D01*
X165076986Y-124761786D01*
X165076986Y-124190358D01*
X164291271Y-125547501D02*
X165791271Y-126547501D01*
X164291271Y-126547501D02*
X165791271Y-125547501D01*
X165791271Y-127118929D02*
X164291271Y-127118929D01*
X164291271Y-127476072D01*
X164362700Y-127690357D01*
X164505557Y-127833215D01*
X164648414Y-127904643D01*
X164934129Y-127976072D01*
X165148414Y-127976072D01*
X165434129Y-127904643D01*
X165576986Y-127833215D01*
X165719843Y-127690357D01*
X165791271Y-127476072D01*
X165791271Y-127118929D01*
X166902700Y-124841143D02*
X166831271Y-124698286D01*
X166831271Y-124484000D01*
X166902700Y-124269715D01*
X167045557Y-124126857D01*
X167188414Y-124055429D01*
X167474129Y-123984000D01*
X167688414Y-123984000D01*
X167974129Y-124055429D01*
X168116986Y-124126857D01*
X168259843Y-124269715D01*
X168331271Y-124484000D01*
X168331271Y-124626857D01*
X168259843Y-124841143D01*
X168188414Y-124912572D01*
X167688414Y-124912572D01*
X167688414Y-124626857D01*
X168331271Y-125555429D02*
X166831271Y-125555429D01*
X168331271Y-126412572D01*
X166831271Y-126412572D01*
X168331271Y-127126858D02*
X166831271Y-127126858D01*
X166831271Y-127484001D01*
X166902700Y-127698286D01*
X167045557Y-127841144D01*
X167188414Y-127912572D01*
X167474129Y-127984001D01*
X167688414Y-127984001D01*
X167974129Y-127912572D01*
X168116986Y-127841144D01*
X168259843Y-127698286D01*
X168331271Y-127484001D01*
X168331271Y-127126858D01*
X159287471Y-124060200D02*
X160787471Y-124560200D01*
X159287471Y-125060200D01*
X160787471Y-125560200D02*
X159287471Y-125560200D01*
X159287471Y-125917343D01*
X159358900Y-126131628D01*
X159501757Y-126274486D01*
X159644614Y-126345914D01*
X159930329Y-126417343D01*
X160144614Y-126417343D01*
X160430329Y-126345914D01*
X160573186Y-126274486D01*
X160716043Y-126131628D01*
X160787471Y-125917343D01*
X160787471Y-125560200D01*
X160787471Y-127060200D02*
X159287471Y-127060200D01*
X159287471Y-127417343D01*
X159358900Y-127631628D01*
X159501757Y-127774486D01*
X159644614Y-127845914D01*
X159930329Y-127917343D01*
X160144614Y-127917343D01*
X160430329Y-127845914D01*
X160573186Y-127774486D01*
X160716043Y-127631628D01*
X160787471Y-127417343D01*
X160787471Y-127060200D01*
D12*
X175260000Y-111760000D02*
X175260000Y-109220000D01*
X149860000Y-109220000D02*
X149860000Y-111760000D01*
X168299795Y-105618643D02*
X168085709Y-105691214D01*
X168014348Y-105763786D01*
X167942986Y-105908929D01*
X167942986Y-106126643D01*
X168014348Y-106271786D01*
X168085709Y-106344357D01*
X168228433Y-106416929D01*
X168799328Y-106416929D01*
X168799328Y-104892929D01*
X168299795Y-104892929D01*
X168157071Y-104965500D01*
X168085709Y-105038071D01*
X168014348Y-105183214D01*
X168014348Y-105328357D01*
X168085709Y-105473500D01*
X168157071Y-105546071D01*
X168299795Y-105618643D01*
X168799328Y-105618643D01*
X166801195Y-105618643D02*
X166587109Y-105691214D01*
X166515748Y-105763786D01*
X166444386Y-105908929D01*
X166444386Y-106126643D01*
X166515748Y-106271786D01*
X166587109Y-106344357D01*
X166729833Y-106416929D01*
X167300728Y-106416929D01*
X167300728Y-104892929D01*
X166801195Y-104892929D01*
X166658471Y-104965500D01*
X166587109Y-105038071D01*
X166515748Y-105183214D01*
X166515748Y-105328357D01*
X166587109Y-105473500D01*
X166658471Y-105546071D01*
X166801195Y-105618643D01*
X167300728Y-105618643D01*
X165802128Y-105836357D02*
X164660338Y-105836357D01*
X163090376Y-106271786D02*
X163161738Y-106344357D01*
X163375823Y-106416929D01*
X163518547Y-106416929D01*
X163732633Y-106344357D01*
X163875357Y-106199214D01*
X163946718Y-106054071D01*
X164018080Y-105763786D01*
X164018080Y-105546071D01*
X163946718Y-105255786D01*
X163875357Y-105110643D01*
X163732633Y-104965500D01*
X163518547Y-104892929D01*
X163375823Y-104892929D01*
X163161738Y-104965500D01*
X163090376Y-105038071D01*
X162448118Y-106416929D02*
X162448118Y-104892929D01*
X162448118Y-105618643D02*
X161591776Y-105618643D01*
X161591776Y-106416929D02*
X161591776Y-104892929D01*
X161020880Y-104892929D02*
X160093176Y-104892929D01*
X160592709Y-105473500D01*
X160378623Y-105473500D01*
X160235899Y-105546071D01*
X160164537Y-105618643D01*
X160093176Y-105763786D01*
X160093176Y-106126643D01*
X160164537Y-106271786D01*
X160235899Y-106344357D01*
X160378623Y-106416929D01*
X160806795Y-106416929D01*
X160949518Y-106344357D01*
X161020880Y-106271786D01*
X158808661Y-105400929D02*
X158808661Y-106416929D01*
X159165471Y-104820357D02*
X159522280Y-105908929D01*
X158594576Y-105908929D01*
X157738233Y-104892929D02*
X157595509Y-104892929D01*
X157452785Y-104965500D01*
X157381423Y-105038071D01*
X157310061Y-105183214D01*
X157238700Y-105473500D01*
X157238700Y-105836357D01*
X157310061Y-106126643D01*
X157381423Y-106271786D01*
X157452785Y-106344357D01*
X157595509Y-106416929D01*
X157738233Y-106416929D01*
X157880957Y-106344357D01*
X157952319Y-106271786D01*
X158023680Y-106126643D01*
X158095042Y-105836357D01*
X158095042Y-105473500D01*
X158023680Y-105183214D01*
X157952319Y-105038071D01*
X157880957Y-104965500D01*
X157738233Y-104892929D01*
X156810528Y-104892929D02*
X155954185Y-104892929D01*
X156382357Y-106416929D02*
X156382357Y-104892929D01*
X175260000Y-109220000D02*
G75*
G03X170180000Y-104140000I-5080000J0D01*
G01*
X154940000Y-104140000D02*
G75*
G03X149860000Y-109220000I0J-5080000D01*
G01*
X154940000Y-104140000D02*
X170180000Y-104140000D01*
X149860000Y-130810000D02*
X149860000Y-129540000D01*
X175260000Y-130810000D02*
X175260000Y-129540000D01*
X149860000Y-130810000D02*
X175260000Y-130810000D01*
X149860000Y-111760000D02*
X149860000Y-129540000D01*
X175260000Y-129540000D02*
X175260000Y-111760000D01*
D13*
X158470000Y-128240000D02*
X160020000Y-128240000D01*
X158470000Y-129540000D02*
X158470000Y-128240000D01*
X159893000Y-133731000D02*
X159893000Y-139573000D01*
X159893000Y-139573000D02*
X160147000Y-139573000D01*
X160147000Y-139573000D02*
X160147000Y-133731000D01*
X160147000Y-133731000D02*
X160020000Y-133731000D01*
X160020000Y-133731000D02*
X160020000Y-139573000D01*
X159766000Y-131064000D02*
X159766000Y-130683000D01*
X160274000Y-131064000D02*
X160274000Y-130683000D01*
X162306000Y-131064000D02*
X162306000Y-130683000D01*
X162814000Y-131064000D02*
X162814000Y-130683000D01*
X164846000Y-131064000D02*
X164846000Y-130683000D01*
X165354000Y-131064000D02*
X165354000Y-130683000D01*
X167894000Y-131064000D02*
X167894000Y-130683000D01*
X167386000Y-131064000D02*
X167386000Y-130683000D01*
X158750000Y-131064000D02*
X158750000Y-133604000D01*
X161290000Y-131064000D02*
X161290000Y-133604000D01*
X161290000Y-131064000D02*
X163830000Y-131064000D01*
X163830000Y-131064000D02*
X163830000Y-133604000D01*
X162306000Y-133604000D02*
X162306000Y-139700000D01*
X162306000Y-139700000D02*
X162814000Y-139700000D01*
X162814000Y-139700000D02*
X162814000Y-133604000D01*
X163830000Y-133604000D02*
X161290000Y-133604000D01*
X161290000Y-133604000D02*
X158750000Y-133604000D01*
X160274000Y-139700000D02*
X160274000Y-133604000D01*
X159766000Y-139700000D02*
X160274000Y-139700000D01*
X159766000Y-133604000D02*
X159766000Y-139700000D01*
X161290000Y-131064000D02*
X161290000Y-133604000D01*
X158750000Y-131064000D02*
X161290000Y-131064000D01*
X166370000Y-131064000D02*
X166370000Y-133604000D01*
X166370000Y-131064000D02*
X168910000Y-131064000D01*
X168910000Y-131064000D02*
X168910000Y-133604000D01*
X167386000Y-133604000D02*
X167386000Y-139700000D01*
X167386000Y-139700000D02*
X167894000Y-139700000D01*
X167894000Y-139700000D02*
X167894000Y-133604000D01*
X168910000Y-133604000D02*
X166370000Y-133604000D01*
X166370000Y-133604000D02*
X163830000Y-133604000D01*
X165354000Y-139700000D02*
X165354000Y-133604000D01*
X164846000Y-139700000D02*
X165354000Y-139700000D01*
X164846000Y-133604000D02*
X164846000Y-139700000D01*
X166370000Y-131064000D02*
X166370000Y-133604000D01*
X163830000Y-131064000D02*
X166370000Y-131064000D01*
X163830000Y-131064000D02*
X163830000Y-133604000D01*
D10*
X159461200Y-110032800D02*
X158089600Y-110032800D01*
X158089600Y-110032800D02*
X158038800Y-110032800D01*
X158038800Y-110032800D02*
X156781500Y-111277400D01*
X160985200Y-110147100D02*
X160883600Y-110147100D01*
X160832800Y-110083600D02*
X160832800Y-110070900D01*
X160832800Y-110070900D02*
X162128200Y-110070900D01*
X162128200Y-110070900D02*
X162153600Y-110070900D01*
X162153600Y-110070900D02*
X162775900Y-110566200D01*
X160832800Y-113093500D02*
X160832800Y-110083600D01*
X164490400Y-110134400D02*
X164566600Y-110134400D01*
X164642800Y-110070900D02*
X163398200Y-110070900D01*
X163398200Y-110070900D02*
X162814000Y-110553500D01*
X164642800Y-113068100D02*
X164642800Y-110083600D01*
X165379400Y-112661700D02*
X165290500Y-112661700D01*
X165722300Y-112661700D02*
X165785800Y-112661700D01*
X165862000Y-112725200D02*
X165252400Y-112725200D01*
X165252400Y-112725200D02*
X165227000Y-112725200D01*
X165227000Y-112725200D02*
X165227000Y-110705900D01*
X165862000Y-110705900D02*
X165862000Y-112725200D01*
X167360600Y-110096300D02*
X167246300Y-110096300D01*
X167487600Y-110020100D02*
X167182800Y-110020100D01*
X167182800Y-110020100D02*
X167182800Y-113055400D01*
X167665400Y-110109000D02*
X167728900Y-110096300D01*
X167779700Y-110020100D02*
X167792400Y-110020100D01*
X167792400Y-110020100D02*
X167805100Y-110020100D01*
X167805100Y-110020100D02*
X167805100Y-113169700D01*
X167500300Y-110020100D02*
X167779700Y-110020100D01*
D14*
X167500300Y-113093500D02*
X167500300Y-110363000D01*
X161163000Y-110375700D02*
X161163000Y-112979200D01*
X169278300Y-110363000D02*
X170281600Y-110363000D01*
X168656000Y-110972600D02*
X168656000Y-112903000D01*
X170878500Y-111010700D02*
X170878500Y-111252000D01*
X170878500Y-112979200D02*
X170294300Y-113550700D01*
X170865800Y-112991900D02*
X170865800Y-112229900D01*
X170307000Y-113550700D02*
X169265600Y-113550700D01*
D15*
X158538159Y-111937800D02*
G75*
G03X158538159Y-111937800I-359659J0D01*
G01*
D14*
X158686500Y-111937800D02*
X159905700Y-111937800D01*
D15*
X155604235Y-110197900D02*
G75*
G03X155604235Y-110197900I-359435J0D01*
G01*
D14*
X155613100Y-110553500D02*
X156476700Y-111447200D01*
D16*
X157035500Y-111544100D02*
X156476700Y-111544100D01*
D14*
X158153100Y-110363000D02*
X157060900Y-111429800D01*
X159375000Y-110363000D02*
X158153100Y-110363000D01*
X159905700Y-110845600D02*
X159423100Y-110337600D01*
X159905700Y-110871000D02*
X159905700Y-113106200D01*
X159905700Y-113106200D02*
X159473900Y-113538000D01*
X159473900Y-113538000D02*
X158153100Y-113538000D01*
X158153100Y-113538000D02*
X157010100Y-112420400D01*
D16*
X157010100Y-112318800D02*
X156476700Y-112318800D01*
D14*
X155663900Y-113233200D02*
X156502100Y-112420400D01*
D15*
X155663166Y-113588800D02*
G75*
G03X155663166Y-113588800I-329466J0D01*
G01*
X161526229Y-113499900D02*
G75*
G03X161526229Y-113499900I-363229J0D01*
G01*
D14*
X162064700Y-110388400D02*
X161175700Y-110388400D01*
D15*
X163146818Y-112217200D02*
G75*
G03X163146818Y-112217200I-370918J0D01*
G01*
D14*
X162699700Y-110896400D02*
X162064700Y-110388400D01*
X162775900Y-111683800D02*
X162775900Y-110972600D01*
X163487100Y-110388400D02*
X162877500Y-110896400D01*
X164325300Y-110388400D02*
X163487100Y-110388400D01*
X164325300Y-112979200D02*
X164325300Y-110388400D01*
D15*
X164672259Y-113487200D02*
G75*
G03X164672259Y-113487200I-359659J0D01*
G01*
X165905318Y-110286800D02*
G75*
G03X165905318Y-110286800I-373518J0D01*
G01*
D14*
X165544500Y-110820200D02*
X165544500Y-112420400D01*
D15*
X165910824Y-113512600D02*
G75*
G03X165910824Y-113512600I-366324J0D01*
G01*
D14*
X166057300Y-113538000D02*
X167043100Y-113538000D01*
X167043100Y-113538000D02*
X167500300Y-113080800D01*
X168668700Y-112941100D02*
X169227500Y-113525300D01*
X169278300Y-110375700D02*
X168643300Y-110985300D01*
X170878500Y-110959900D02*
X170370500Y-110451900D01*
D15*
X171203247Y-111734600D02*
G75*
G03X171203247Y-111734600I-337447J0D01*
G01*
D17*
X173575980Y-126956820D02*
X171142660Y-129377440D01*
D12*
X174217437Y-128120140D02*
G75*
G03X174217437Y-128120140I-1802237J0D01*
G01*
X154101800Y-123037600D02*
X157657800Y-130149600D01*
X157657800Y-130149600D02*
X150545800Y-130149600D01*
X150545800Y-130149600D02*
X151879300Y-127482600D01*
X151879300Y-127482600D02*
X152323800Y-126593600D01*
X152323800Y-126593600D02*
X154101800Y-123037600D01*
X155879800Y-126657100D02*
X150545800Y-130149600D01*
X153504900Y-126593600D02*
X152323800Y-126593600D01*
X151879300Y-127482600D02*
X152196800Y-127482600D01*
X154863800Y-129070100D02*
X154711400Y-129070100D01*
X155816300Y-127673100D02*
X155816300Y-128752600D01*
X155371800Y-129070100D02*
X155371800Y-128943100D01*
X155435300Y-128879600D02*
X155435300Y-127863600D01*
X155435300Y-128879600D02*
X155498800Y-128879600D01*
X153721521Y-126530278D02*
G75*
G02X155308300Y-127038100I466639J-1274902D01*
G01*
X153720715Y-126531714D02*
G75*
G02X153504900Y-126593600I-182795J230214D01*
G01*
X152196101Y-127483074D02*
G75*
G02X152704800Y-127673100I64199J-604046D01*
G01*
X153527261Y-128119176D02*
G75*
G02X152704800Y-127673100I147819J1253796D01*
G01*
X154039508Y-127864766D02*
G75*
G02X154990800Y-128625600I-285688J-1332334D01*
G01*
X154101715Y-128309565D02*
G75*
G02X154673300Y-129070100I-284395J-808795D01*
G01*
X153662075Y-128182093D02*
G75*
G02X154101800Y-128308100I-825195J-3709947D01*
G01*
X154990767Y-128943200D02*
G75*
G02X154863800Y-129070100I-190467J63600D01*
G01*
X154989868Y-128626274D02*
G75*
G02X154990800Y-128943100I-316568J-159346D01*
G01*
X155433735Y-127865445D02*
G75*
G02X154736800Y-127419100I153965J1007685D01*
G01*
X155624349Y-127355742D02*
G75*
G02X155308300Y-127038100I478971J792622D01*
G01*
X155626848Y-127357175D02*
G75*
G02X155816300Y-127673100I-168688J-315925D01*
G01*
X155816300Y-128752600D02*
G75*
G02X155435300Y-129133600I-381000J0D01*
G01*
X155432871Y-129136145D02*
G75*
G02X155371800Y-129070100I2429J63505D01*
G01*
X155371800Y-128943100D02*
G75*
G02X155435300Y-128879600I63500J0D01*
G01*
X155498800Y-128879600D02*
G75*
G02X155625800Y-129006600I0J-127000D01*
G01*
X155816300Y-120421400D02*
X167627300Y-120421400D01*
X167627300Y-123469400D02*
X155816300Y-123469400D01*
X154960320Y-119438420D02*
X154906980Y-119385080D01*
X154188160Y-119385080D02*
X153911300Y-119659400D01*
X160769300Y-114452400D02*
X159903160Y-116568220D01*
X157919420Y-118955820D02*
X157883860Y-118991380D01*
X156014420Y-119659400D02*
X155498800Y-119659400D01*
X160769300Y-114452400D02*
X159908240Y-115072160D01*
X158191200Y-115409980D02*
X156042360Y-115214400D01*
X153992580Y-116730780D02*
X153845260Y-117330220D01*
X153786840Y-118008400D02*
X153786840Y-118389400D01*
X153888440Y-119613680D02*
X153911300Y-119659400D01*
X154546300Y-120929400D02*
X154360880Y-120743980D01*
X159374840Y-116103400D02*
X159092900Y-116451380D01*
X157065980Y-117203220D02*
X156756100Y-117264180D01*
X154200860Y-118534180D02*
X154030680Y-118722140D01*
X153786840Y-118389400D02*
X153789380Y-118386860D01*
X154846020Y-117314980D02*
X154853640Y-117309900D01*
X156121100Y-116806980D02*
X156639260Y-116733320D01*
X157988000Y-116517420D02*
X159374840Y-116103400D01*
X154546300Y-121056400D02*
X154038300Y-120294400D01*
X153911300Y-119832120D02*
X153911300Y-119786400D01*
X154673300Y-120929400D02*
X154183080Y-120439180D01*
X153911300Y-120167400D02*
X153807160Y-120274080D01*
X153156920Y-120302020D02*
X153022300Y-120167400D01*
X153022300Y-120167400D02*
X153319480Y-119748300D01*
X153202640Y-118546880D02*
X153149300Y-118452900D01*
X152427940Y-117807740D02*
X152006300Y-117627400D01*
X152006300Y-117627400D02*
X150990300Y-117246400D01*
X150990300Y-117246400D02*
X151124920Y-117784880D01*
X151305260Y-119847360D02*
X151328120Y-119870220D01*
X152107900Y-120167400D02*
X152463500Y-120167400D01*
X153009600Y-120167400D02*
X153022300Y-120167400D01*
X151930100Y-118976140D02*
X151955500Y-119367300D01*
X160388300Y-114960400D02*
X159374840Y-115597940D01*
D18*
X159374840Y-115597940D02*
X158229300Y-115597940D01*
X158229300Y-115597940D02*
X157213300Y-115468400D01*
X157213300Y-115468400D02*
X155562300Y-115468400D01*
X155562300Y-115468400D02*
X154927300Y-115849400D01*
X154927300Y-115849400D02*
X154419300Y-116357400D01*
X154419300Y-116357400D02*
X154165300Y-116865400D01*
X154165300Y-116865400D02*
X154038300Y-117881400D01*
X154038300Y-117881400D02*
X154546300Y-117246400D01*
X154546300Y-117246400D02*
X155181300Y-116865400D01*
X155181300Y-116865400D02*
X154927300Y-116357400D01*
X154927300Y-116357400D02*
X154546300Y-116865400D01*
X155308300Y-116865400D02*
X155943300Y-116484400D01*
X155943300Y-116484400D02*
X156451300Y-116484400D01*
X156451300Y-116484400D02*
X156578300Y-116484400D01*
X156578300Y-116484400D02*
X157721300Y-116357400D01*
X157721300Y-116357400D02*
X158991300Y-115976400D01*
X158991300Y-115976400D02*
X159499300Y-115849400D01*
X159499300Y-115849400D02*
X154927300Y-115849400D01*
X154927300Y-115849400D02*
X154927300Y-116103400D01*
X154927300Y-116357400D02*
X154927300Y-116103400D01*
X154927300Y-116103400D02*
X159880300Y-116027200D01*
X154800300Y-116484400D02*
X156451300Y-116484400D01*
X160388300Y-114960400D02*
X159880300Y-115849400D01*
X159880300Y-115849400D02*
X159753300Y-116357400D01*
X159753300Y-116357400D02*
X159374840Y-116865400D01*
X159374840Y-116865400D02*
X159374840Y-116484400D01*
X159374840Y-116484400D02*
X159753300Y-115597940D01*
X159245300Y-116992400D02*
X158864300Y-117500400D01*
X158864300Y-117500400D02*
X158610300Y-117881400D01*
X158610300Y-117881400D02*
X157721300Y-118770400D01*
X157721300Y-118770400D02*
X157213300Y-119151400D01*
X157213300Y-119151400D02*
X156324300Y-119405400D01*
X156324300Y-119405400D02*
X155435300Y-119405400D01*
X155435300Y-119405400D02*
X154673300Y-118897400D01*
X154673300Y-118897400D02*
X154292300Y-119024400D01*
X154292300Y-119024400D02*
X154038300Y-119278400D01*
X154038300Y-119278400D02*
X154292300Y-118770400D01*
X154292300Y-118770400D02*
X154800300Y-118262400D01*
X154800300Y-118262400D02*
X155486100Y-117856000D01*
X155486100Y-117856000D02*
X156883100Y-117373400D01*
X156883100Y-117373400D02*
X157492700Y-117373400D01*
X157492700Y-117373400D02*
X158229300Y-117119400D01*
X158229300Y-117119400D02*
X158991300Y-116738400D01*
X158864300Y-117119400D02*
X158102300Y-117754400D01*
X158102300Y-117754400D02*
X157975300Y-117627400D01*
X157975300Y-117627400D02*
X157848300Y-117627400D01*
X157848300Y-117627400D02*
X156705300Y-117754400D01*
X156705300Y-117754400D02*
X155689300Y-118008400D01*
X155689300Y-118008400D02*
X155054300Y-118516400D01*
X155054300Y-118516400D02*
X154927300Y-118643400D01*
X154927300Y-118643400D02*
X155054300Y-118897400D01*
X155054300Y-118897400D02*
X155308300Y-118897400D01*
X155308300Y-118897400D02*
X155689300Y-119024400D01*
X155689300Y-119024400D02*
X156324300Y-119024400D01*
X156324300Y-119024400D02*
X156705300Y-118897400D01*
X156705300Y-118897400D02*
X157213300Y-118770400D01*
X157213300Y-118770400D02*
X157848300Y-118262400D01*
X157848300Y-118262400D02*
X157975300Y-118135400D01*
X157975300Y-118135400D02*
X157848300Y-118008400D01*
X157848300Y-118008400D02*
X157340300Y-118008400D01*
X157340300Y-118008400D02*
X156324300Y-118262400D01*
X156324300Y-118262400D02*
X156070300Y-118262400D01*
X156070300Y-118262400D02*
X155562300Y-118516400D01*
X155562300Y-118516400D02*
X155562300Y-118643400D01*
X155562300Y-118643400D02*
X155689300Y-118770400D01*
X155689300Y-118770400D02*
X156070300Y-118643400D01*
X156070300Y-118643400D02*
X157340300Y-118389400D01*
D12*
X152720040Y-120042940D02*
X152747980Y-120070880D01*
X152336500Y-118973600D02*
X152336500Y-118965980D01*
X153276300Y-119428260D02*
X153276300Y-119405400D01*
X153276300Y-119405400D02*
X153276300Y-119151400D01*
X153276300Y-119151400D02*
X153149300Y-119151400D01*
X153149300Y-119151400D02*
X153022300Y-119151400D01*
X153022300Y-119151400D02*
X153022300Y-119786400D01*
X153149300Y-119151400D02*
X153149300Y-119278400D01*
X153149300Y-119278400D02*
X153149300Y-119659400D01*
X153149300Y-119659400D02*
X153149300Y-119786400D01*
X153149300Y-119786400D02*
X153149300Y-119913400D01*
X153022300Y-119151400D02*
X152641300Y-119151400D01*
X152641300Y-119151400D02*
X152387300Y-119151400D01*
X152387300Y-119151400D02*
X152895300Y-120040400D01*
X152641300Y-119151400D02*
X152641300Y-119659400D01*
X153149300Y-119278400D02*
X152514300Y-119278400D01*
X153276300Y-119405400D02*
X152514300Y-119405400D01*
X153276300Y-119532400D02*
X152514300Y-119532400D01*
X153149300Y-119659400D02*
X152514300Y-119659400D01*
X153149300Y-119786400D02*
X152641300Y-119786400D01*
X152387300Y-119024400D02*
X153276300Y-119024400D01*
X152387300Y-118897400D02*
X153276300Y-118897400D01*
X152387300Y-118770400D02*
X153149300Y-118770400D01*
X152387300Y-118643400D02*
X153149300Y-118643400D01*
X152260300Y-118516400D02*
X153149300Y-118516400D01*
X152260300Y-118389400D02*
X153022300Y-118389400D01*
X152133300Y-118262400D02*
X152895300Y-118262400D01*
X152133300Y-118135400D02*
X152768300Y-118135400D01*
X152006300Y-118008400D02*
X152514300Y-118008400D01*
X151244300Y-117881400D02*
X151371300Y-117881400D01*
X151371300Y-117881400D02*
X151498300Y-117881400D01*
X151498300Y-117881400D02*
X152387300Y-117881400D01*
X152006300Y-117754400D02*
X151244300Y-117754400D01*
X151752300Y-117627400D02*
X151117300Y-117627400D01*
X151625300Y-117500400D02*
X151117300Y-117500400D01*
X151498300Y-117881400D02*
X151498300Y-118389400D01*
X151371300Y-117881400D02*
X151371300Y-118389400D01*
X151752300Y-118389400D02*
X151244300Y-118389400D01*
X151752300Y-118516400D02*
X151244300Y-118516400D01*
X151879300Y-118643400D02*
X151244300Y-118643400D01*
X151879300Y-118770400D02*
X151117300Y-118770400D01*
X151879300Y-118897400D02*
X151117300Y-118897400D01*
X151879300Y-119024400D02*
X151117300Y-119024400D01*
X151879300Y-119151400D02*
X151117300Y-119151400D01*
X151879300Y-119278400D02*
X151117300Y-119278400D01*
X151879300Y-119405400D02*
X151117300Y-119405400D01*
X151955500Y-119532400D02*
X151117300Y-119532400D01*
X152006300Y-119659400D02*
X151244300Y-119659400D01*
X152006300Y-119786400D02*
X151371300Y-119786400D01*
X152133300Y-119913400D02*
X151498300Y-119913400D01*
X152260300Y-120040400D02*
X151752300Y-120040400D01*
X154292300Y-121945400D02*
G75*
G02X155816300Y-120421400I1524000J0D01*
G01*
X167627300Y-120421400D02*
G75*
G02X169151300Y-121945400I0J-1524000D01*
G01*
X169151300Y-121945400D02*
G75*
G02X167627300Y-123469400I-1524000J0D01*
G01*
X155816300Y-123469400D02*
G75*
G02X154292300Y-121945400I0J1524000D01*
G01*
X155498800Y-119661466D02*
G75*
G02X154960320Y-119438420I0J761526D01*
G01*
X154188160Y-119382540D02*
G75*
G02X154906980Y-119385080I358140J-360680D01*
G01*
X159900764Y-116573847D02*
G75*
G02X157919420Y-118955820I-8344044J4925607D01*
G01*
X157880233Y-118993413D02*
G75*
G02X156014420Y-119659400I-1738813J1924813D01*
G01*
X159906252Y-115069922D02*
G75*
G02X158191200Y-115409980I-1268012J1900222D01*
G01*
X153992036Y-116726985D02*
G75*
G02X156042360Y-115214400I2144304J-760715D01*
G01*
X153785060Y-118007643D02*
G75*
G02X153845260Y-117330220I3049780J70363D01*
G01*
X154358849Y-120744959D02*
G75*
G02X153911300Y-119659400I1086611J1083019D01*
G01*
X159092841Y-116453178D02*
G75*
G02X157065980Y-117203220I-2631381J3997218D01*
G01*
X154201773Y-118533556D02*
G75*
G02X156756100Y-117264180I3654147J-4148444D01*
G01*
X153910455Y-119659469D02*
G75*
G02X154030680Y-118722140I762845J378529D01*
G01*
X153790941Y-118385165D02*
G75*
G02X154846020Y-117314980I3831299J-2722035D01*
G01*
X154857430Y-117307334D02*
G75*
G02X156121100Y-116806980I2134890J-3545866D01*
G01*
X157981679Y-116517586D02*
G75*
G02X156639260Y-116733320I-1812319J6992786D01*
G01*
X154417278Y-121056680D02*
G75*
G02X153911300Y-119832120I1228842J1224560D01*
G01*
X154179558Y-120439110D02*
G75*
G02X153911300Y-119786400I653762J650170D01*
G01*
X153806434Y-120273354D02*
G75*
G02X153449020Y-120421400I-357414J357414D01*
G01*
X153449020Y-120423012D02*
G75*
G02X153156920Y-120302020I0J413092D01*
G01*
X153405174Y-119304301D02*
G75*
G02X153319480Y-119748300I-1195674J501D01*
G01*
X153203094Y-118548721D02*
G75*
G02X153403300Y-119303800I-1323794J-755079D01*
G01*
X152427300Y-117808911D02*
G75*
G02X153149300Y-118452900I-601340J-1400909D01*
G01*
X151125448Y-117787536D02*
G75*
G02X151061420Y-118722140I-1478808J-368184D01*
G01*
X150990583Y-119090887D02*
G75*
G02X151061420Y-118722140I992857J447D01*
G01*
X151304246Y-119848374D02*
G75*
G02X150990300Y-119090440I757934J757934D01*
G01*
X151907797Y-120143853D02*
G75*
G02X151328120Y-119870220I205183J1185493D01*
G01*
X152109227Y-120168703D02*
G75*
G02X151909780Y-120144540I-1327J824263D01*
G01*
X151576095Y-118028466D02*
G75*
G02X151930100Y-119019320I-1408755J-1061974D01*
G01*
X152457640Y-120163013D02*
G75*
G02X151955500Y-119367300I709440J1003993D01*
G01*
X153024088Y-120169191D02*
G75*
G02X152720040Y-120042940I752J431051D01*
G01*
X152746640Y-120070446D02*
G75*
G02X152336500Y-118973600I1118940J1043506D01*
G01*
X151829320Y-117934580D02*
G75*
G02X152336500Y-118965980I-991420J-1127920D01*
G01*
X153275856Y-119429771D02*
G75*
G02X153022300Y-120040400I-865696J1511D01*
G01*
D13*
D12*
X173369788Y-128868868D02*
X173369788Y-127168868D01*
X172798360Y-127168868D01*
X172655502Y-127249820D01*
X172584074Y-127330772D01*
X172512645Y-127492677D01*
X172512645Y-127735534D01*
X172584074Y-127897439D01*
X172655502Y-127978391D01*
X172798360Y-128059344D01*
X173369788Y-128059344D01*
X171869788Y-128868868D02*
X171869788Y-127168868D01*
X171869788Y-127816487D02*
X171726931Y-127735534D01*
X171441217Y-127735534D01*
X171298360Y-127816487D01*
X171226931Y-127897439D01*
X171155502Y-128059344D01*
X171155502Y-128545058D01*
X171226931Y-128706963D01*
X171298360Y-128787915D01*
X171441217Y-128868868D01*
X171726931Y-128868868D01*
X171869788Y-128787915D01*
D16*
X166605934Y-119695482D02*
X167272601Y-118743101D01*
X167748792Y-119695482D02*
X167748792Y-117695482D01*
X166986887Y-117695482D01*
X166796411Y-117790720D01*
X166701172Y-117885958D01*
X166605934Y-118076434D01*
X166605934Y-118362149D01*
X166701172Y-118552625D01*
X166796411Y-118647863D01*
X166986887Y-118743101D01*
X167748792Y-118743101D01*
X165463077Y-119695482D02*
X165653553Y-119600244D01*
X165748792Y-119505006D01*
X165844030Y-119314530D01*
X165844030Y-118743101D01*
X165748792Y-118552625D01*
X165653553Y-118457387D01*
X165463077Y-118362149D01*
X165177363Y-118362149D01*
X164986887Y-118457387D01*
X164891649Y-118552625D01*
X164796411Y-118743101D01*
X164796411Y-119314530D01*
X164891649Y-119505006D01*
X164986887Y-119600244D01*
X165177363Y-119695482D01*
X165463077Y-119695482D01*
X163939268Y-119695482D02*
X163939268Y-117695482D01*
X163939268Y-118647863D02*
X162796410Y-118647863D01*
X162796410Y-119695482D02*
X162796410Y-117695482D01*
X161939268Y-119600244D02*
X161653553Y-119695482D01*
X161177363Y-119695482D01*
X160986887Y-119600244D01*
X160891649Y-119505006D01*
X160796410Y-119314530D01*
X160796410Y-119124053D01*
X160891649Y-118933577D01*
X160986887Y-118838339D01*
X161177363Y-118743101D01*
X161558315Y-118647863D01*
X161748791Y-118552625D01*
X161844030Y-118457387D01*
X161939268Y-118266910D01*
X161939268Y-118076434D01*
X161844030Y-117885958D01*
X161748791Y-117790720D01*
X161558315Y-117695482D01*
X161082125Y-117695482D01*
X160796410Y-117790720D01*
D19*
X167184494Y-122631200D02*
X167269160Y-122715867D01*
X167523160Y-122800533D01*
X167692494Y-122800533D01*
X167946494Y-122715867D01*
X168115827Y-122546533D01*
X168200494Y-122377200D01*
X168285160Y-122038533D01*
X168285160Y-121784533D01*
X168200494Y-121445867D01*
X168115827Y-121276533D01*
X167946494Y-121107200D01*
X167692494Y-121022533D01*
X167523160Y-121022533D01*
X167269160Y-121107200D01*
X167184494Y-121191867D01*
X166168494Y-122800533D02*
X166337827Y-122715867D01*
X166422494Y-122631200D01*
X166507160Y-122461867D01*
X166507160Y-121953867D01*
X166422494Y-121784533D01*
X166337827Y-121699867D01*
X166168494Y-121615200D01*
X165914494Y-121615200D01*
X165745160Y-121699867D01*
X165660494Y-121784533D01*
X165575827Y-121953867D01*
X165575827Y-122461867D01*
X165660494Y-122631200D01*
X165745160Y-122715867D01*
X165914494Y-122800533D01*
X166168494Y-122800533D01*
X164813827Y-122800533D02*
X164813827Y-121615200D01*
X164813827Y-121784533D02*
X164729160Y-121699867D01*
X164559827Y-121615200D01*
X164305827Y-121615200D01*
X164136493Y-121699867D01*
X164051827Y-121869200D01*
X164051827Y-122800533D01*
X164051827Y-121869200D02*
X163967160Y-121699867D01*
X163797827Y-121615200D01*
X163543827Y-121615200D01*
X163374493Y-121699867D01*
X163289827Y-121869200D01*
X163289827Y-122800533D01*
X162443160Y-121615200D02*
X162443160Y-123393200D01*
X162443160Y-121699867D02*
X162273826Y-121615200D01*
X161935160Y-121615200D01*
X161765826Y-121699867D01*
X161681160Y-121784533D01*
X161596493Y-121953867D01*
X161596493Y-122461867D01*
X161681160Y-122631200D01*
X161765826Y-122715867D01*
X161935160Y-122800533D01*
X162273826Y-122800533D01*
X162443160Y-122715867D01*
X160580493Y-122800533D02*
X160749826Y-122715867D01*
X160834493Y-122546533D01*
X160834493Y-121022533D01*
X159903160Y-122800533D02*
X159903160Y-121615200D01*
X159903160Y-121022533D02*
X159987826Y-121107200D01*
X159903160Y-121191867D01*
X159818493Y-121107200D01*
X159903160Y-121022533D01*
X159903160Y-121191867D01*
X158294493Y-122800533D02*
X158294493Y-121869200D01*
X158379159Y-121699867D01*
X158548493Y-121615200D01*
X158887159Y-121615200D01*
X159056493Y-121699867D01*
X158294493Y-122715867D02*
X158463826Y-122800533D01*
X158887159Y-122800533D01*
X159056493Y-122715867D01*
X159141159Y-122546533D01*
X159141159Y-122377200D01*
X159056493Y-122207867D01*
X158887159Y-122123200D01*
X158463826Y-122123200D01*
X158294493Y-122038533D01*
X157447826Y-121615200D02*
X157447826Y-122800533D01*
X157447826Y-121784533D02*
X157363159Y-121699867D01*
X157193826Y-121615200D01*
X156939826Y-121615200D01*
X156770492Y-121699867D01*
X156685826Y-121869200D01*
X156685826Y-122800533D01*
X156093159Y-121615200D02*
X155415825Y-121615200D01*
X155839159Y-121022533D02*
X155839159Y-122546533D01*
X155754492Y-122715867D01*
X155585159Y-122800533D01*
X155415825Y-122800533D01*
M02*
