G04 #@! TF.FileFunction,Paste,Top*
%FSLAX46Y46*%
G04 Gerber Fmt 4.6, Leading zero omitted, Abs format (unit mm)*
G04 Created by KiCad (PCBNEW 0.201504271001+5626~23~ubuntu14.10.1-product) date Wed 29 Apr 2015 11:50:05 EEST*
%MOMM*%
G01*
G04 APERTURE LIST*
%ADD10C,0.100000*%
%ADD11C,0.254000*%
%ADD12R,0.279400X1.168400*%
%ADD13R,0.914400X0.914400*%
%ADD14R,2.199640X0.398780*%
%ADD15R,2.397760X1.897380*%
%ADD16R,0.998400X4.724400*%
G04 APERTURE END LIST*
D10*
D11*
X175260000Y-111760000D02*
X175260000Y-109220000D01*
X149860000Y-109220000D02*
X149860000Y-111760000D01*
X175260000Y-109220000D02*
G75*
G03X170180000Y-104140000I-5080000J0D01*
G01*
X154940000Y-104140000D02*
G75*
G03X149860000Y-109220000I0J-5080000D01*
G01*
X154940000Y-104140000D02*
X170180000Y-104140000D01*
X149860000Y-130810000D02*
X149860000Y-129540000D01*
X175260000Y-130810000D02*
X175260000Y-129540000D01*
X149860000Y-130810000D02*
X175260000Y-130810000D01*
X149860000Y-111760000D02*
X149860000Y-129540000D01*
X175260000Y-129540000D02*
X175260000Y-111760000D01*
D12*
X163499800Y-116967000D03*
X162864800Y-116967000D03*
X162204400Y-116967000D03*
X161544000Y-116967000D03*
X160909000Y-116967000D03*
X160248600Y-116967000D03*
X159588200Y-116967000D03*
X158953200Y-116967000D03*
X158292800Y-116967000D03*
X157657800Y-116967000D03*
X157657800Y-123825000D03*
X158292800Y-123825000D03*
X158953200Y-123825000D03*
X159588200Y-123825000D03*
X160248600Y-123825000D03*
X160909000Y-123825000D03*
X161544000Y-123825000D03*
X162204400Y-123825000D03*
X162864800Y-123825000D03*
X163499800Y-123825000D03*
D13*
X162864800Y-127152400D03*
X164642800Y-127152400D03*
X162864800Y-125628400D03*
X164642800Y-125628400D03*
X165354000Y-115544600D03*
X165354000Y-117322600D03*
X158673800Y-115087400D03*
X158673800Y-113309400D03*
X156819600Y-115087400D03*
X156819600Y-113309400D03*
D14*
X167386000Y-120980200D03*
X167386000Y-120180100D03*
X167386000Y-119380000D03*
X167386000Y-118579900D03*
X167386000Y-117779800D03*
D15*
X168099740Y-123830080D03*
X173598840Y-123830080D03*
X168099740Y-114929920D03*
X173598840Y-114929920D03*
D16*
X152908000Y-124714000D03*
X152908000Y-115316000D03*
M02*
