G04 #@! TF.FileFunction,Soldermask,Bot*
%FSLAX46Y46*%
G04 Gerber Fmt 4.6, Leading zero omitted, Abs format (unit mm)*
G04 Created by KiCad (PCBNEW 0.201504281001+5628~23~ubuntu14.10.1-product) date Wed 29 Apr 2015 13:34:42 EEST*
%MOMM*%
G01*
G04 APERTURE LIST*
%ADD10C,0.100000*%
%ADD11C,0.254000*%
G04 APERTURE END LIST*
D10*
D11*
X175260000Y-111760000D02*
X175260000Y-109220000D01*
X149860000Y-109220000D02*
X149860000Y-111760000D01*
X175260000Y-109220000D02*
G75*
G03X170180000Y-104140000I-5080000J0D01*
G01*
X154940000Y-104140000D02*
G75*
G03X149860000Y-109220000I0J-5080000D01*
G01*
X154940000Y-104140000D02*
X170180000Y-104140000D01*
X149860000Y-130810000D02*
X149860000Y-129540000D01*
X175260000Y-130810000D02*
X175260000Y-129540000D01*
X149860000Y-130810000D02*
X175260000Y-130810000D01*
X149860000Y-111760000D02*
X149860000Y-129540000D01*
X175260000Y-129540000D02*
X175260000Y-111760000D01*
D10*
G36*
X155370872Y-107783228D02*
X155365553Y-108164198D01*
X155365514Y-108164369D01*
X155365514Y-108164375D01*
X155291658Y-108489455D01*
X155155992Y-108794161D01*
X155155992Y-108794164D01*
X154963729Y-109066714D01*
X154963727Y-109066715D01*
X154722185Y-109296734D01*
X154440563Y-109475457D01*
X154129592Y-109596073D01*
X154129592Y-109596074D01*
X153801113Y-109653994D01*
X153467643Y-109647008D01*
X153141885Y-109575386D01*
X152836230Y-109441849D01*
X152562342Y-109251492D01*
X152330643Y-109011560D01*
X152149960Y-108731195D01*
X152027176Y-108421076D01*
X151966964Y-108093010D01*
X151971621Y-107759494D01*
X152040968Y-107433240D01*
X152172365Y-107126669D01*
X152360807Y-106851456D01*
X152599115Y-106618089D01*
X152878216Y-106435450D01*
X153187469Y-106310503D01*
X153515107Y-106248003D01*
X153848642Y-106250332D01*
X154175374Y-106317400D01*
X154482852Y-106446652D01*
X154482856Y-106446655D01*
X154759379Y-106633172D01*
X154994405Y-106869844D01*
X155178986Y-107147660D01*
X155306087Y-107456034D01*
X155306087Y-107456036D01*
X155370839Y-107783049D01*
X155370838Y-107783060D01*
X155370872Y-107783228D01*
X155370872Y-107783228D01*
G37*
G36*
X160934400Y-130606800D02*
X159105600Y-130606800D01*
X159105600Y-128473200D01*
X160934400Y-128473200D01*
X160934400Y-130606800D01*
X160934400Y-130606800D01*
G37*
G36*
X163474400Y-129697685D02*
X163474335Y-129706845D01*
X163474318Y-129709292D01*
X163474311Y-129710329D01*
X163454418Y-129887676D01*
X163400457Y-130057782D01*
X163314484Y-130214168D01*
X163199772Y-130350876D01*
X163060692Y-130462699D01*
X162902540Y-130545379D01*
X162731341Y-130595765D01*
X162731326Y-130595766D01*
X162731314Y-130595770D01*
X162553620Y-130611941D01*
X162553616Y-130611940D01*
X162376158Y-130593289D01*
X162376155Y-130593288D01*
X162376134Y-130593286D01*
X162205656Y-130540514D01*
X162048674Y-130455634D01*
X161911169Y-130341880D01*
X161798377Y-130203583D01*
X161714595Y-130046013D01*
X161663015Y-129875170D01*
X161645600Y-129697562D01*
X161645600Y-129696440D01*
X161645600Y-129382438D01*
X161645600Y-129382315D01*
X161645664Y-129373154D01*
X161645689Y-129369671D01*
X161665582Y-129192324D01*
X161719543Y-129022218D01*
X161805516Y-128865832D01*
X161920228Y-128729124D01*
X162059308Y-128617301D01*
X162217460Y-128534621D01*
X162388659Y-128484235D01*
X162388673Y-128484233D01*
X162388686Y-128484230D01*
X162566380Y-128468059D01*
X162743842Y-128486711D01*
X162743844Y-128486711D01*
X162743866Y-128486714D01*
X162914344Y-128539486D01*
X163071326Y-128624366D01*
X163208831Y-128738120D01*
X163321623Y-128876417D01*
X163405405Y-129033987D01*
X163456985Y-129204830D01*
X163474400Y-129382438D01*
X163474400Y-129383560D01*
X163474400Y-129697562D01*
X163474400Y-129697685D01*
X163474400Y-129697685D01*
G37*
G36*
X166014400Y-129697685D02*
X166014335Y-129706845D01*
X166014318Y-129709292D01*
X166014311Y-129710329D01*
X165994418Y-129887676D01*
X165940457Y-130057782D01*
X165854484Y-130214168D01*
X165739772Y-130350876D01*
X165600692Y-130462699D01*
X165442540Y-130545379D01*
X165271341Y-130595765D01*
X165271326Y-130595766D01*
X165271314Y-130595770D01*
X165093620Y-130611941D01*
X165093616Y-130611940D01*
X164916158Y-130593289D01*
X164916155Y-130593288D01*
X164916134Y-130593286D01*
X164745656Y-130540514D01*
X164588674Y-130455634D01*
X164451169Y-130341880D01*
X164338377Y-130203583D01*
X164254595Y-130046013D01*
X164203015Y-129875170D01*
X164185600Y-129697562D01*
X164185600Y-129696440D01*
X164185600Y-129382438D01*
X164185600Y-129382315D01*
X164185664Y-129373154D01*
X164185689Y-129369671D01*
X164205582Y-129192324D01*
X164259543Y-129022218D01*
X164345516Y-128865832D01*
X164460228Y-128729124D01*
X164599308Y-128617301D01*
X164757460Y-128534621D01*
X164928659Y-128484235D01*
X164928673Y-128484233D01*
X164928686Y-128484230D01*
X165106380Y-128468059D01*
X165283842Y-128486711D01*
X165283844Y-128486711D01*
X165283866Y-128486714D01*
X165454344Y-128539486D01*
X165611326Y-128624366D01*
X165748831Y-128738120D01*
X165861623Y-128876417D01*
X165945405Y-129033987D01*
X165996985Y-129204830D01*
X166014400Y-129382438D01*
X166014400Y-129383560D01*
X166014400Y-129697562D01*
X166014400Y-129697685D01*
X166014400Y-129697685D01*
G37*
G36*
X168554400Y-129697685D02*
X168554335Y-129706845D01*
X168554318Y-129709292D01*
X168554311Y-129710329D01*
X168534418Y-129887676D01*
X168480457Y-130057782D01*
X168394484Y-130214168D01*
X168279772Y-130350876D01*
X168140692Y-130462699D01*
X167982540Y-130545379D01*
X167811341Y-130595765D01*
X167811326Y-130595766D01*
X167811314Y-130595770D01*
X167633620Y-130611941D01*
X167633616Y-130611940D01*
X167456158Y-130593289D01*
X167456155Y-130593288D01*
X167456134Y-130593286D01*
X167285656Y-130540514D01*
X167128674Y-130455634D01*
X166991169Y-130341880D01*
X166878377Y-130203583D01*
X166794595Y-130046013D01*
X166743015Y-129875170D01*
X166725600Y-129697562D01*
X166725600Y-129696440D01*
X166725600Y-129382438D01*
X166725600Y-129382315D01*
X166725664Y-129373154D01*
X166725689Y-129369671D01*
X166745582Y-129192324D01*
X166799543Y-129022218D01*
X166885516Y-128865832D01*
X167000228Y-128729124D01*
X167139308Y-128617301D01*
X167297460Y-128534621D01*
X167468659Y-128484235D01*
X167468673Y-128484233D01*
X167468686Y-128484230D01*
X167646380Y-128468059D01*
X167823842Y-128486711D01*
X167823844Y-128486711D01*
X167823866Y-128486714D01*
X167994344Y-128539486D01*
X168151326Y-128624366D01*
X168288831Y-128738120D01*
X168401623Y-128876417D01*
X168485405Y-129033987D01*
X168536985Y-129204830D01*
X168554400Y-129382438D01*
X168554400Y-129383560D01*
X168554400Y-129697562D01*
X168554400Y-129697685D01*
X168554400Y-129697685D01*
G37*
G36*
X171099501Y-117131295D02*
X171097936Y-117243378D01*
X171097897Y-117243549D01*
X171097897Y-117243555D01*
X171076197Y-117339070D01*
X171036285Y-117428713D01*
X171036283Y-117428714D01*
X170979718Y-117508901D01*
X170979718Y-117508903D01*
X170908657Y-117576573D01*
X170908655Y-117576573D01*
X170825802Y-117629153D01*
X170825801Y-117629155D01*
X170734314Y-117664640D01*
X170637673Y-117681681D01*
X170539565Y-117679626D01*
X170443730Y-117658555D01*
X170353800Y-117619266D01*
X170273223Y-117563263D01*
X170205056Y-117492674D01*
X170151899Y-117410191D01*
X170115776Y-117318955D01*
X170098062Y-117222435D01*
X170098062Y-117222433D01*
X170098747Y-117173373D01*
X170099432Y-117124311D01*
X170119833Y-117028327D01*
X170158491Y-116938134D01*
X170213931Y-116857165D01*
X170284042Y-116788508D01*
X170366157Y-116734773D01*
X170457137Y-116698014D01*
X170553531Y-116679626D01*
X170651656Y-116680312D01*
X170747784Y-116700045D01*
X170838244Y-116738070D01*
X170919598Y-116792944D01*
X170988745Y-116862576D01*
X171043049Y-116944310D01*
X171080442Y-117035033D01*
X171099468Y-117131117D01*
X171099467Y-117131127D01*
X171099501Y-117131295D01*
X171099501Y-117131295D01*
G37*
G36*
X171099501Y-121530575D02*
X171097936Y-121642658D01*
X171097897Y-121642829D01*
X171097897Y-121642835D01*
X171076197Y-121738350D01*
X171036285Y-121827993D01*
X171036283Y-121827994D01*
X170979718Y-121908181D01*
X170979718Y-121908183D01*
X170908657Y-121975853D01*
X170908655Y-121975853D01*
X170825802Y-122028433D01*
X170825801Y-122028435D01*
X170734314Y-122063920D01*
X170637673Y-122080961D01*
X170539565Y-122078906D01*
X170443730Y-122057835D01*
X170353800Y-122018546D01*
X170273223Y-121962543D01*
X170205056Y-121891954D01*
X170151899Y-121809471D01*
X170115776Y-121718235D01*
X170098062Y-121621715D01*
X170098062Y-121621713D01*
X170098747Y-121572653D01*
X170099432Y-121523591D01*
X170119833Y-121427607D01*
X170158491Y-121337414D01*
X170213931Y-121256445D01*
X170284042Y-121187788D01*
X170366157Y-121134053D01*
X170457137Y-121097294D01*
X170553531Y-121078906D01*
X170651656Y-121079592D01*
X170747784Y-121099325D01*
X170838244Y-121137350D01*
X170919598Y-121192224D01*
X170988745Y-121261856D01*
X171043049Y-121343590D01*
X171080442Y-121434313D01*
X171099468Y-121530397D01*
X171099467Y-121530407D01*
X171099501Y-121530575D01*
X171099501Y-121530575D01*
G37*
G36*
X173150872Y-107783228D02*
X173145553Y-108164198D01*
X173145514Y-108164369D01*
X173145514Y-108164375D01*
X173071658Y-108489455D01*
X172935992Y-108794161D01*
X172935992Y-108794164D01*
X172743729Y-109066714D01*
X172743727Y-109066715D01*
X172502185Y-109296734D01*
X172220563Y-109475457D01*
X171909592Y-109596073D01*
X171909592Y-109596074D01*
X171581113Y-109653994D01*
X171247643Y-109647008D01*
X170921885Y-109575386D01*
X170616230Y-109441849D01*
X170342342Y-109251492D01*
X170110643Y-109011560D01*
X169929960Y-108731195D01*
X169807176Y-108421076D01*
X169746964Y-108093010D01*
X169751621Y-107759494D01*
X169820968Y-107433240D01*
X169952365Y-107126669D01*
X170140807Y-106851456D01*
X170379115Y-106618089D01*
X170658216Y-106435450D01*
X170967469Y-106310503D01*
X171295107Y-106248003D01*
X171628642Y-106250332D01*
X171955374Y-106317400D01*
X172262852Y-106446652D01*
X172262856Y-106446655D01*
X172539379Y-106633172D01*
X172774405Y-106869844D01*
X172958986Y-107147660D01*
X173086087Y-107456034D01*
X173086087Y-107456036D01*
X173150839Y-107783049D01*
X173150838Y-107783060D01*
X173150872Y-107783228D01*
X173150872Y-107783228D01*
G37*
M02*
